<svg xmlns="http://www.w3.org/2000/svg" viewBox="0 0 279.63 279.87"><defs><style>.cls-1{fill:#00427c;}</style></defs><g id="Layer_2" data-name="Layer 2"><g id="Layer_1-2" data-name="Layer 1"><path class="cls-1" d="M117.11,268.83C46.09,256.3-1.49,188.28,11,117.2S91.51-1.5,162.52,11,281.12,91.58,268.6,162.66,188.12,281.36,117.11,268.83ZM2.14,115.64c-13.38,76,37.48,148.69,113.4,162.09s148.56-37.53,162-113.5a140.61,140.61,0,0,0,2.14-24.37c0-66.59-47.8-125.76-115.54-137.72C88.18-11.26,15.52,39.66,2.14,115.64Z"/><path class="cls-1" d="M139.81,83.63c18.34,0,20.51.07,27.76.4,6.69.3,10.33,1.42,12.75,2.36a21.49,21.49,0,0,1,7.9,5.14,21.18,21.18,0,0,1,5.13,7.9c.94,2.42,2.06,6,2.37,12.75.33,7.24.4,9.41.4,27.75s-.07,20.51-.4,27.76c-.31,6.69-1.43,10.33-2.37,12.75a22.65,22.65,0,0,1-13,13c-2.42.94-6.06,2.06-12.75,2.37-7.25.33-9.42.4-27.76.4s-20.51-.07-27.75-.4c-6.7-.31-10.33-1.43-12.75-2.37a21.18,21.18,0,0,1-7.9-5.13,21.49,21.49,0,0,1-5.14-7.9c-.94-2.42-2.06-6.06-2.36-12.75-.33-7.25-.4-9.42-.4-27.76s.07-20.51.4-27.75c.3-6.7,1.42-10.33,2.36-12.75a22.76,22.76,0,0,1,13-13c2.42-.94,6-2.06,12.75-2.36,7.24-.33,9.41-.4,27.75-.4m0-12.38c-18.65,0-21,.08-28.31.42a50.34,50.34,0,0,0-16.68,3.19A35.12,35.12,0,0,0,74.74,94.94a50.34,50.34,0,0,0-3.19,16.68c-.34,7.32-.42,9.66-.42,28.31s.08,21,.42,28.32a50.27,50.27,0,0,0,3.19,16.67A35.1,35.1,0,0,0,94.82,205a50.34,50.34,0,0,0,16.68,3.19c7.32.33,9.66.41,28.31.41s21-.08,28.32-.41A50.27,50.27,0,0,0,184.8,205a35.08,35.08,0,0,0,20.09-20.09,50.27,50.27,0,0,0,3.19-16.67c.33-7.33.41-9.66.41-28.32s-.08-21-.41-28.31a50.34,50.34,0,0,0-3.19-16.68A35.1,35.1,0,0,0,184.8,74.86a50.27,50.27,0,0,0-16.67-3.19c-7.33-.34-9.66-.42-28.32-.42Z"/><path class="cls-1" d="M139.81,104.66a35.27,35.27,0,1,0,35.27,35.27A35.27,35.27,0,0,0,139.81,104.66Zm0,58.17a22.9,22.9,0,1,1,22.9-22.9A22.89,22.89,0,0,1,139.81,162.83Z"/><circle class="cls-1" cx="176.47" cy="103.27" r="8.24"/></g></g></svg>