<svg xmlns="http://www.w3.org/2000/svg" viewBox="0 0 279.63 279.87"><defs><style>.cls-1{fill:#00427c;}</style></defs><g id="Layer_2" data-name="Layer 2"><g id="Layer_1-2" data-name="Layer 1"><path class="cls-1" d="M117.11,268.83C46.09,256.3-1.49,188.28,11,117.2S91.51-1.5,162.52,11,281.12,91.58,268.6,162.66,188.12,281.36,117.11,268.83ZM2.14,115.64c-13.38,76,37.48,148.69,113.4,162.09s148.56-37.53,162-113.5a140.61,140.61,0,0,0,2.14-24.37c0-66.59-47.8-125.76-115.54-137.72C88.18-11.26,15.52,39.66,2.14,115.64Z"/><path class="cls-1" d="M214.87,96.2a58,58,0,0,1-16.62,4.55,29,29,0,0,0,12.72-16,58.11,58.11,0,0,1-18.37,7,28.94,28.94,0,0,0-50,19.79,28.57,28.57,0,0,0,.75,6.59A82.13,82.13,0,0,1,83.66,87.93a29,29,0,0,0,9,38.62,28.77,28.77,0,0,1-13.11-3.62v.37a29,29,0,0,0,23.21,28.37,29.07,29.07,0,0,1-13.07.49,29,29,0,0,0,27,20.1,58,58,0,0,1-35.93,12.38,60.63,60.63,0,0,1-6.91-.4,81.93,81.93,0,0,0,44.36,13c53.21,0,82.31-44.09,82.31-82.32,0-1.26,0-2.51-.08-3.75A58.89,58.89,0,0,0,214.87,96.2Z"/></g></g></svg>